<mxfile host="app.diagrams.net" modified="2023-10-24T21:52:32.706Z" agent="Mozilla/5.0 (Windows NT 10.0; Win64; x64) AppleWebKit/537.36 (KHTML, like Gecko) Chrome/118.0.0.0 Safari/537.36" etag="TUxgXIg_NlhxUg0r7GOn" version="22.0.7" type="google">
  <diagram name="Page-1" id="ZrvhKkLFPCvadHWVegnk">
    <mxGraphModel grid="1" page="1" gridSize="10" guides="1" tooltips="1" connect="1" arrows="1" fold="1" pageScale="1" pageWidth="850" pageHeight="1100" math="0" shadow="0">
      <root>
        <mxCell id="0" />
        <mxCell id="1" parent="0" />
        <mxCell id="TV-LyPcgmKJFYzfQ5_gd-127" style="edgeStyle=orthogonalEdgeStyle;rounded=0;orthogonalLoop=1;jettySize=auto;html=1;endArrow=none;endFill=0;" edge="1" parent="1" source="TV-LyPcgmKJFYzfQ5_gd-1" target="TV-LyPcgmKJFYzfQ5_gd-99">
          <mxGeometry relative="1" as="geometry">
            <Array as="points">
              <mxPoint x="480" y="755" />
              <mxPoint x="225" y="755" />
            </Array>
          </mxGeometry>
        </mxCell>
        <mxCell id="TV-LyPcgmKJFYzfQ5_gd-128" style="edgeStyle=orthogonalEdgeStyle;rounded=0;orthogonalLoop=1;jettySize=auto;html=1;endArrow=none;endFill=0;" edge="1" parent="1" source="TV-LyPcgmKJFYzfQ5_gd-1" target="TV-LyPcgmKJFYzfQ5_gd-84">
          <mxGeometry relative="1" as="geometry">
            <Array as="points">
              <mxPoint x="565" y="775" />
              <mxPoint x="565" y="775" />
            </Array>
          </mxGeometry>
        </mxCell>
        <mxCell id="TV-LyPcgmKJFYzfQ5_gd-1" value="&amp;nbsp;" style="strokeWidth=1;shadow=0;dashed=0;align=center;html=1;shape=mxgraph.mockup.forms.rrect;rSize=0;strokeColor=#999999;fillColor=#ffffff;" vertex="1" parent="1">
          <mxGeometry x="460" y="450" width="210" height="275" as="geometry" />
        </mxCell>
        <mxCell id="TV-LyPcgmKJFYzfQ5_gd-2" value="&lt;font color=&quot;#000000&quot;&gt;Student&lt;/font&gt;" style="strokeWidth=1;shadow=0;dashed=0;align=center;html=1;shape=mxgraph.mockup.forms.rrect;rSize=0;strokeColor=#999999;fontColor=#008cff;fontSize=17;fillColor=#ffffff;resizeWidth=1;whiteSpace=wrap;" vertex="1" parent="TV-LyPcgmKJFYzfQ5_gd-1">
          <mxGeometry width="210" height="20" relative="1" as="geometry">
            <mxPoint y="-11" as="offset" />
          </mxGeometry>
        </mxCell>
        <mxCell id="TV-LyPcgmKJFYzfQ5_gd-3" value="&lt;font color=&quot;#000000&quot;&gt;password&lt;/font&gt;&lt;span style=&quot;white-space: pre;&quot;&gt;&#x9;&lt;/span&gt;&lt;span style=&quot;white-space: pre;&quot;&gt;&#x9;&lt;/span&gt;&amp;nbsp; &amp;nbsp; &amp;nbsp;&amp;nbsp;&lt;font color=&quot;#808080&quot;&gt;varchar&lt;/font&gt;" style="strokeWidth=1;shadow=0;dashed=0;align=center;html=1;shape=mxgraph.mockup.forms.anchor;fontSize=17;fontColor=#666666;align=left;spacingLeft=5;resizeWidth=1;whiteSpace=wrap;" vertex="1" parent="TV-LyPcgmKJFYzfQ5_gd-1">
          <mxGeometry width="210" height="20" relative="1" as="geometry">
            <mxPoint y="26" as="offset" />
          </mxGeometry>
        </mxCell>
        <mxCell id="TV-LyPcgmKJFYzfQ5_gd-4" value="&lt;font color=&quot;#000000&quot;&gt;name&lt;/font&gt;&lt;span style=&quot;white-space: pre;&quot;&gt;&#x9;&lt;/span&gt;&lt;span style=&quot;white-space: pre;&quot;&gt;&#x9;&lt;/span&gt;&amp;nbsp; &amp;nbsp; &amp;nbsp; varchar" style="strokeWidth=1;shadow=0;dashed=0;align=center;html=1;shape=mxgraph.mockup.forms.anchor;fontSize=17;fontColor=#666666;align=left;spacingLeft=5;resizeWidth=1;whiteSpace=wrap;" vertex="1" parent="TV-LyPcgmKJFYzfQ5_gd-1">
          <mxGeometry width="210" height="20" relative="1" as="geometry">
            <mxPoint y="60" as="offset" />
          </mxGeometry>
        </mxCell>
        <mxCell id="TV-LyPcgmKJFYzfQ5_gd-5" value="&lt;font color=&quot;#000000&quot;&gt;phone&lt;/font&gt;&lt;span style=&quot;white-space: pre;&quot;&gt;&#x9;&lt;/span&gt;&lt;span style=&quot;white-space: pre;&quot;&gt;&#x9;&lt;span style=&quot;white-space: pre;&quot;&gt;&#x9;&lt;/span&gt;l&lt;/span&gt;ong" style="strokeWidth=1;shadow=0;dashed=0;align=center;html=1;shape=mxgraph.mockup.forms.rrect;rSize=0;fontSize=17;fontColor=#666666;align=left;spacingLeft=5;fillColor=#FFFFFF;strokeColor=none;resizeWidth=1;whiteSpace=wrap;" vertex="1" parent="TV-LyPcgmKJFYzfQ5_gd-1">
          <mxGeometry width="210" height="20" relative="1" as="geometry">
            <mxPoint y="80" as="offset" />
          </mxGeometry>
        </mxCell>
        <mxCell id="TV-LyPcgmKJFYzfQ5_gd-6" value="&lt;font color=&quot;#000000&quot;&gt;email&lt;/font&gt;&lt;span style=&quot;white-space: pre;&quot;&gt;&#x9;&lt;/span&gt;&lt;span style=&quot;white-space: pre;&quot;&gt;&#x9;&lt;/span&gt;&amp;nbsp; &amp;nbsp; &amp;nbsp; varchar" style="strokeWidth=1;shadow=0;dashed=0;align=center;html=1;shape=mxgraph.mockup.forms.anchor;fontSize=17;fontColor=#666666;align=left;spacingLeft=5;resizeWidth=1;whiteSpace=wrap;" vertex="1" parent="TV-LyPcgmKJFYzfQ5_gd-1">
          <mxGeometry width="210" height="20" relative="1" as="geometry">
            <mxPoint y="100" as="offset" />
          </mxGeometry>
        </mxCell>
        <mxCell id="TV-LyPcgmKJFYzfQ5_gd-19" value="&lt;font color=&quot;#000000&quot;&gt;gender&lt;/font&gt;&lt;span style=&quot;white-space: pre;&quot;&gt;&#x9;&lt;/span&gt;&lt;span style=&quot;white-space: pre;&quot;&gt;&#x9;&lt;/span&gt;&amp;nbsp; &amp;nbsp; &amp;nbsp; varchar" style="strokeWidth=1;shadow=0;dashed=0;align=center;html=1;shape=mxgraph.mockup.forms.anchor;fontSize=17;fontColor=#666666;align=left;spacingLeft=5;resizeWidth=1;whiteSpace=wrap;" vertex="1" parent="TV-LyPcgmKJFYzfQ5_gd-1">
          <mxGeometry y="117.8603998778999" width="210" height="21.153846153846153" as="geometry" />
        </mxCell>
        <mxCell id="TV-LyPcgmKJFYzfQ5_gd-20" value="&lt;font color=&quot;#000000&quot;&gt;dob&lt;/font&gt;&lt;span style=&quot;white-space: pre;&quot;&gt;&#x9;&lt;/span&gt;&lt;span style=&quot;white-space: pre;&quot;&gt;&#x9;&lt;/span&gt;&lt;span style=&quot;white-space: pre;&quot;&gt;&#x9;&lt;/span&gt;&amp;nbsp; &amp;nbsp; datetime" style="strokeWidth=1;shadow=0;dashed=0;align=center;html=1;shape=mxgraph.mockup.forms.anchor;fontSize=17;fontColor=#666666;align=left;spacingLeft=5;resizeWidth=1;whiteSpace=wrap;" vertex="1" parent="TV-LyPcgmKJFYzfQ5_gd-1">
          <mxGeometry y="139.01526455026453" width="210" height="21.153846153846153" as="geometry" />
        </mxCell>
        <mxCell id="TV-LyPcgmKJFYzfQ5_gd-21" value="&lt;font color=&quot;#000000&quot;&gt;batch&lt;/font&gt;&lt;span style=&quot;white-space: pre;&quot;&gt;&#x9;&lt;/span&gt;&lt;span style=&quot;white-space: pre;&quot;&gt;&#x9;&lt;span style=&quot;white-space: pre;&quot;&gt;&#x9;&lt;/span&gt;  i&lt;/span&gt;nt" style="strokeWidth=1;shadow=0;dashed=0;align=center;html=1;shape=mxgraph.mockup.forms.rrect;rSize=0;fontSize=17;fontColor=#666666;align=left;spacingLeft=5;fillColor=#FFFFFF;strokeColor=none;resizeWidth=1;whiteSpace=wrap;" vertex="1" parent="TV-LyPcgmKJFYzfQ5_gd-1">
          <mxGeometry y="160.1701292226292" width="210" height="21.153846153846153" as="geometry" />
        </mxCell>
        <mxCell id="TV-LyPcgmKJFYzfQ5_gd-22" value="&lt;font color=&quot;#000000&quot;&gt;section&lt;/font&gt;&lt;span style=&quot;white-space: pre;&quot;&gt;&#x9;&lt;/span&gt;&lt;span style=&quot;white-space: pre;&quot;&gt;&#x9;&lt;/span&gt;&amp;nbsp; &amp;nbsp; &amp;nbsp; &amp;nbsp; &amp;nbsp;char" style="strokeWidth=1;shadow=0;dashed=0;align=center;html=1;shape=mxgraph.mockup.forms.anchor;fontSize=17;fontColor=#666666;align=left;spacingLeft=5;resizeWidth=1;whiteSpace=wrap;" vertex="1" parent="TV-LyPcgmKJFYzfQ5_gd-1">
          <mxGeometry y="181.3239753764754" width="210" height="21.153846153846153" as="geometry" />
        </mxCell>
        <mxCell id="TV-LyPcgmKJFYzfQ5_gd-24" value="&lt;font color=&quot;#000000&quot;&gt;semester&lt;/font&gt;&lt;span style=&quot;white-space: pre;&quot;&gt;&#x9;&lt;/span&gt;&lt;span style=&quot;white-space: pre;&quot;&gt;&#x9;&lt;/span&gt;&amp;nbsp; &amp;nbsp; &lt;span style=&quot;white-space: pre;&quot;&gt;&#x9;&lt;/span&gt;&amp;nbsp; int" style="strokeWidth=1;shadow=0;dashed=0;align=center;html=1;shape=mxgraph.mockup.forms.anchor;fontSize=17;fontColor=#666666;align=left;spacingLeft=5;resizeWidth=1;whiteSpace=wrap;" vertex="1" parent="TV-LyPcgmKJFYzfQ5_gd-1">
          <mxGeometry y="202.47539275539276" width="210" height="21.153846153846153" as="geometry" />
        </mxCell>
        <mxCell id="TV-LyPcgmKJFYzfQ5_gd-26" value="&lt;font color=&quot;#000000&quot;&gt;degree&lt;/font&gt;&lt;span style=&quot;white-space: pre;&quot;&gt;&#x9;&lt;/span&gt;&lt;span style=&quot;white-space: pre;&quot;&gt;&#x9;&lt;/span&gt;&amp;nbsp; &amp;nbsp; &amp;nbsp; varchar" style="strokeWidth=1;shadow=0;dashed=0;align=center;html=1;shape=mxgraph.mockup.forms.anchor;fontSize=17;fontColor=#666666;align=left;spacingLeft=5;resizeWidth=1;whiteSpace=wrap;" vertex="1" parent="TV-LyPcgmKJFYzfQ5_gd-1">
          <mxGeometry y="224.38266839641844" width="210" height="21.153846153846153" as="geometry" />
        </mxCell>
        <mxCell id="TV-LyPcgmKJFYzfQ5_gd-27" value="&lt;font color=&quot;#000000&quot;&gt;photo&lt;/font&gt;&lt;span style=&quot;white-space: pre;&quot;&gt;&#x9;&lt;/span&gt;&lt;span style=&quot;white-space: pre;&quot;&gt;&#x9;&lt;/span&gt;&amp;nbsp; &amp;nbsp; &amp;nbsp; base64" style="strokeWidth=1;shadow=0;dashed=0;align=center;html=1;shape=mxgraph.mockup.forms.anchor;fontSize=17;fontColor=#666666;align=left;spacingLeft=5;resizeWidth=1;whiteSpace=wrap;" vertex="1" parent="TV-LyPcgmKJFYzfQ5_gd-1">
          <mxGeometry y="245.5393350630851" width="210" height="21.153846153846153" as="geometry" />
        </mxCell>
        <mxCell id="FCID2NQ1XeL7YYG9ewf5-1" value="&lt;font color=&quot;#000000&quot;&gt;id&lt;/font&gt;&lt;span style=&quot;white-space: pre;&quot;&gt;&#x9;&lt;/span&gt;&lt;span style=&quot;white-space: pre;&quot;&gt;&#x9;&lt;/span&gt;&lt;span style=&quot;white-space: pre;&quot;&gt;&#x9;&amp;nbsp;&lt;/span&gt;&amp;nbsp; &amp;nbsp; &amp;nbsp;&lt;font color=&quot;#808080&quot;&gt;varchar&lt;/font&gt;" style="strokeWidth=1;shadow=0;dashed=0;align=center;html=1;shape=mxgraph.mockup.forms.anchor;fontSize=17;fontColor=#666666;align=left;spacingLeft=5;resizeWidth=1;whiteSpace=wrap;" vertex="1" parent="TV-LyPcgmKJFYzfQ5_gd-1">
          <mxGeometry width="210" height="20" relative="1" as="geometry">
            <mxPoint y="45" as="offset" />
          </mxGeometry>
        </mxCell>
        <mxCell id="TV-LyPcgmKJFYzfQ5_gd-29" value="&amp;nbsp;" style="strokeWidth=1;shadow=0;dashed=0;align=center;html=1;shape=mxgraph.mockup.forms.rrect;rSize=0;strokeColor=#999999;fillColor=#ffffff;" vertex="1" parent="1">
          <mxGeometry x="180" y="495" width="210" height="190" as="geometry" />
        </mxCell>
        <mxCell id="TV-LyPcgmKJFYzfQ5_gd-30" value="&lt;font color=&quot;#000000&quot;&gt;Admin&lt;/font&gt;" style="strokeWidth=1;shadow=0;dashed=0;align=center;html=1;shape=mxgraph.mockup.forms.rrect;rSize=0;strokeColor=#999999;fontColor=#008cff;fontSize=17;fillColor=#ffffff;resizeWidth=1;whiteSpace=wrap;" vertex="1" parent="TV-LyPcgmKJFYzfQ5_gd-29">
          <mxGeometry width="210" height="30" relative="1" as="geometry">
            <mxPoint y="-1" as="offset" />
          </mxGeometry>
        </mxCell>
        <mxCell id="TV-LyPcgmKJFYzfQ5_gd-31" value="&lt;font color=&quot;#000000&quot;&gt;id&lt;/font&gt;&lt;span style=&quot;white-space: pre;&quot;&gt;&#x9;&lt;/span&gt;&lt;span style=&quot;white-space: pre;&quot;&gt;&#x9;&lt;/span&gt;&lt;span style=&quot;white-space: pre;&quot;&gt;&#x9;&amp;nbsp;&lt;/span&gt;&amp;nbsp; &amp;nbsp; &amp;nbsp;&lt;font color=&quot;#808080&quot;&gt;varchar&lt;/font&gt;" style="strokeWidth=1;shadow=0;dashed=0;align=center;html=1;shape=mxgraph.mockup.forms.anchor;fontSize=17;fontColor=#666666;align=left;spacingLeft=5;resizeWidth=1;whiteSpace=wrap;" vertex="1" parent="TV-LyPcgmKJFYzfQ5_gd-29">
          <mxGeometry width="210" height="20" relative="1" as="geometry">
            <mxPoint y="40" as="offset" />
          </mxGeometry>
        </mxCell>
        <mxCell id="TV-LyPcgmKJFYzfQ5_gd-32" value="&lt;font color=&quot;#000000&quot;&gt;name&lt;/font&gt;&lt;span style=&quot;white-space: pre;&quot;&gt;&#x9;&lt;/span&gt;&lt;span style=&quot;white-space: pre;&quot;&gt;&#x9;&lt;/span&gt;&amp;nbsp; &amp;nbsp; &amp;nbsp; varchar" style="strokeWidth=1;shadow=0;dashed=0;align=center;html=1;shape=mxgraph.mockup.forms.anchor;fontSize=17;fontColor=#666666;align=left;spacingLeft=5;resizeWidth=1;whiteSpace=wrap;" vertex="1" parent="TV-LyPcgmKJFYzfQ5_gd-29">
          <mxGeometry width="210" height="20" relative="1" as="geometry">
            <mxPoint y="60" as="offset" />
          </mxGeometry>
        </mxCell>
        <mxCell id="TV-LyPcgmKJFYzfQ5_gd-33" value="&lt;font color=&quot;#000000&quot;&gt;phone&lt;/font&gt;&lt;span style=&quot;white-space: pre;&quot;&gt;&#x9;&lt;/span&gt;&lt;span style=&quot;white-space: pre;&quot;&gt;&#x9;&lt;span style=&quot;white-space: pre;&quot;&gt;&#x9;&lt;/span&gt;l&lt;/span&gt;ong" style="strokeWidth=1;shadow=0;dashed=0;align=center;html=1;shape=mxgraph.mockup.forms.rrect;rSize=0;fontSize=17;fontColor=#666666;align=left;spacingLeft=5;fillColor=#FFFFFF;strokeColor=none;resizeWidth=1;whiteSpace=wrap;" vertex="1" parent="TV-LyPcgmKJFYzfQ5_gd-29">
          <mxGeometry width="210" height="20" relative="1" as="geometry">
            <mxPoint y="80" as="offset" />
          </mxGeometry>
        </mxCell>
        <mxCell id="TV-LyPcgmKJFYzfQ5_gd-34" value="&lt;font color=&quot;#000000&quot;&gt;email&lt;/font&gt;&lt;span style=&quot;white-space: pre;&quot;&gt;&#x9;&lt;/span&gt;&lt;span style=&quot;white-space: pre;&quot;&gt;&#x9;&lt;/span&gt;&amp;nbsp; &amp;nbsp; &amp;nbsp; varchar" style="strokeWidth=1;shadow=0;dashed=0;align=center;html=1;shape=mxgraph.mockup.forms.anchor;fontSize=17;fontColor=#666666;align=left;spacingLeft=5;resizeWidth=1;whiteSpace=wrap;" vertex="1" parent="TV-LyPcgmKJFYzfQ5_gd-29">
          <mxGeometry width="210" height="20" relative="1" as="geometry">
            <mxPoint y="144" as="offset" />
          </mxGeometry>
        </mxCell>
        <mxCell id="TV-LyPcgmKJFYzfQ5_gd-35" value="&lt;font color=&quot;#000000&quot;&gt;gender&lt;/font&gt;&lt;span style=&quot;white-space: pre;&quot;&gt;&#x9;&lt;/span&gt;&lt;span style=&quot;white-space: pre;&quot;&gt;&#x9;&lt;/span&gt;&amp;nbsp; &amp;nbsp; &amp;nbsp; varchar" style="strokeWidth=1;shadow=0;dashed=0;align=center;html=1;shape=mxgraph.mockup.forms.anchor;fontSize=17;fontColor=#666666;align=left;spacingLeft=5;resizeWidth=1;whiteSpace=wrap;" vertex="1" parent="TV-LyPcgmKJFYzfQ5_gd-29">
          <mxGeometry x="-1" y="104.00082173382177" width="210" height="14.615384615384617" as="geometry" />
        </mxCell>
        <mxCell id="TV-LyPcgmKJFYzfQ5_gd-36" value="&lt;font color=&quot;#000000&quot;&gt;dob&lt;/font&gt;&lt;span style=&quot;white-space: pre;&quot;&gt;&#x9;&lt;/span&gt;&lt;span style=&quot;white-space: pre;&quot;&gt;&#x9;&lt;/span&gt;&lt;span style=&quot;white-space: pre;&quot;&gt;&#x9;&lt;/span&gt;&amp;nbsp; &amp;nbsp; datetime" style="strokeWidth=1;shadow=0;dashed=0;align=center;html=1;shape=mxgraph.mockup.forms.anchor;fontSize=17;fontColor=#666666;align=left;spacingLeft=5;resizeWidth=1;whiteSpace=wrap;" vertex="1" parent="TV-LyPcgmKJFYzfQ5_gd-29">
          <mxGeometry y="125.99691005291007" width="210" height="14.615384615384617" as="geometry" />
        </mxCell>
        <mxCell id="TV-LyPcgmKJFYzfQ5_gd-41" value="&lt;font color=&quot;#000000&quot;&gt;photo&lt;/font&gt;&lt;span style=&quot;white-space: pre;&quot;&gt;&#x9;&lt;/span&gt;&lt;span style=&quot;white-space: pre;&quot;&gt;&#x9;&lt;/span&gt;&amp;nbsp; &amp;nbsp; &amp;nbsp; base64" style="strokeWidth=1;shadow=0;dashed=0;align=center;html=1;shape=mxgraph.mockup.forms.anchor;fontSize=17;fontColor=#666666;align=left;spacingLeft=5;resizeWidth=1;whiteSpace=wrap;" vertex="1" parent="TV-LyPcgmKJFYzfQ5_gd-29">
          <mxGeometry x="1" y="168.00393019943024" width="210" height="14.615384615384617" as="geometry" />
        </mxCell>
        <mxCell id="TV-LyPcgmKJFYzfQ5_gd-51" value="&amp;nbsp;" style="strokeWidth=1;shadow=0;dashed=0;align=center;html=1;shape=mxgraph.mockup.forms.rrect;rSize=0;strokeColor=#999999;fillColor=#ffffff;" vertex="1" parent="1">
          <mxGeometry x="600" y="145" width="210" height="150" as="geometry" />
        </mxCell>
        <mxCell id="TV-LyPcgmKJFYzfQ5_gd-52" value="&lt;font color=&quot;#000000&quot;&gt;Bus&lt;/font&gt;" style="strokeWidth=1;shadow=0;dashed=0;align=center;html=1;shape=mxgraph.mockup.forms.rrect;rSize=0;strokeColor=#999999;fontColor=#008cff;fontSize=17;fillColor=#ffffff;resizeWidth=1;whiteSpace=wrap;" vertex="1" parent="TV-LyPcgmKJFYzfQ5_gd-51">
          <mxGeometry width="210" height="30" relative="1" as="geometry">
            <mxPoint y="-1" as="offset" />
          </mxGeometry>
        </mxCell>
        <mxCell id="TV-LyPcgmKJFYzfQ5_gd-53" value="&lt;font color=&quot;#000000&quot;&gt;id&lt;/font&gt;&lt;span style=&quot;white-space: pre;&quot;&gt;&#x9;&lt;/span&gt;&lt;span style=&quot;white-space: pre;&quot;&gt;&#x9;&lt;/span&gt;&lt;span style=&quot;white-space: pre;&quot;&gt;&#x9;&amp;nbsp;&lt;/span&gt;&amp;nbsp; &amp;nbsp; &amp;nbsp;&lt;font color=&quot;#808080&quot;&gt;varchar&lt;/font&gt;" style="strokeWidth=1;shadow=0;dashed=0;align=center;html=1;shape=mxgraph.mockup.forms.anchor;fontSize=17;fontColor=#666666;align=left;spacingLeft=5;resizeWidth=1;whiteSpace=wrap;" vertex="1" parent="TV-LyPcgmKJFYzfQ5_gd-51">
          <mxGeometry width="210" height="20" relative="1" as="geometry">
            <mxPoint y="40" as="offset" />
          </mxGeometry>
        </mxCell>
        <mxCell id="TV-LyPcgmKJFYzfQ5_gd-54" value="&lt;font color=&quot;#000000&quot;&gt;route&lt;/font&gt;&lt;span style=&quot;white-space: pre;&quot;&gt;&#x9;&lt;/span&gt;&lt;span style=&quot;white-space: pre;&quot;&gt;&#x9;&lt;/span&gt;&amp;nbsp; &amp;nbsp; &amp;nbsp; &lt;span style=&quot;white-space: pre;&quot;&gt;&#x9;&lt;/span&gt;&amp;nbsp; int" style="strokeWidth=1;shadow=0;dashed=0;align=center;html=1;shape=mxgraph.mockup.forms.anchor;fontSize=17;fontColor=#666666;align=left;spacingLeft=5;resizeWidth=1;whiteSpace=wrap;" vertex="1" parent="TV-LyPcgmKJFYzfQ5_gd-51">
          <mxGeometry width="210" height="20" relative="1" as="geometry">
            <mxPoint y="60" as="offset" />
          </mxGeometry>
        </mxCell>
        <mxCell id="TV-LyPcgmKJFYzfQ5_gd-55" value="&lt;font color=&quot;#000000&quot;&gt;reg_no&amp;nbsp; &amp;nbsp; &lt;/font&gt;&lt;span style=&quot;white-space: pre;&quot;&gt;&#x9;&lt;/span&gt;&lt;span style=&quot;white-space: pre;&quot;&gt;&#x9;&lt;/span&gt;&amp;nbsp; &amp;nbsp; &amp;nbsp;varchar" style="strokeWidth=1;shadow=0;dashed=0;align=center;html=1;shape=mxgraph.mockup.forms.rrect;rSize=0;fontSize=17;fontColor=#666666;align=left;spacingLeft=5;fillColor=#FFFFFF;strokeColor=none;resizeWidth=1;whiteSpace=wrap;" vertex="1" parent="TV-LyPcgmKJFYzfQ5_gd-51">
          <mxGeometry width="210" height="20" relative="1" as="geometry">
            <mxPoint y="80" as="offset" />
          </mxGeometry>
        </mxCell>
        <mxCell id="TV-LyPcgmKJFYzfQ5_gd-57" value="&lt;font color=&quot;#000000&quot;&gt;capacity&lt;/font&gt;&lt;span style=&quot;white-space: pre;&quot;&gt;&#x9;&lt;/span&gt;&lt;span style=&quot;white-space: pre;&quot;&gt;&#x9;&lt;/span&gt;&amp;nbsp; &amp;nbsp; &amp;nbsp;&lt;span style=&quot;white-space: pre;&quot;&gt;&#x9;&lt;/span&gt;&amp;nbsp; int" style="strokeWidth=1;shadow=0;dashed=0;align=center;html=1;shape=mxgraph.mockup.forms.anchor;fontSize=17;fontColor=#666666;align=left;spacingLeft=5;resizeWidth=1;whiteSpace=wrap;" vertex="1" parent="TV-LyPcgmKJFYzfQ5_gd-51">
          <mxGeometry y="107.99591189512245" width="210" height="11.53846153846154" as="geometry" />
        </mxCell>
        <mxCell id="TV-LyPcgmKJFYzfQ5_gd-58" value="&lt;font color=&quot;#000000&quot;&gt;stops&lt;/font&gt;&lt;span style=&quot;white-space: pre;&quot;&gt;&#x9;&lt;/span&gt;&lt;span style=&quot;white-space: pre;&quot;&gt;&#x9;&lt;/span&gt;&amp;nbsp; &amp;nbsp; &amp;nbsp;varchar" style="strokeWidth=1;shadow=0;dashed=0;align=center;html=1;shape=mxgraph.mockup.forms.anchor;fontSize=17;fontColor=#666666;align=left;spacingLeft=5;resizeWidth=1;whiteSpace=wrap;" vertex="1" parent="TV-LyPcgmKJFYzfQ5_gd-51">
          <mxGeometry y="130.0012447786132" width="210" height="11.53846153846154" as="geometry" />
        </mxCell>
        <mxCell id="TV-LyPcgmKJFYzfQ5_gd-60" value="&amp;nbsp;" style="strokeWidth=1;shadow=0;dashed=0;align=center;html=1;shape=mxgraph.mockup.forms.rrect;rSize=0;strokeColor=#999999;fillColor=#ffffff;" vertex="1" parent="1">
          <mxGeometry x="320" y="145" width="210" height="189.00214814814814" as="geometry" />
        </mxCell>
        <mxCell id="TV-LyPcgmKJFYzfQ5_gd-61" value="&lt;font color=&quot;#000000&quot;&gt;Query&lt;/font&gt;" style="strokeWidth=1;shadow=0;dashed=0;align=center;html=1;shape=mxgraph.mockup.forms.rrect;rSize=0;strokeColor=#999999;fontColor=#008cff;fontSize=17;fillColor=#ffffff;resizeWidth=1;whiteSpace=wrap;" vertex="1" parent="TV-LyPcgmKJFYzfQ5_gd-60">
          <mxGeometry width="210" height="30" relative="1" as="geometry">
            <mxPoint y="-1" as="offset" />
          </mxGeometry>
        </mxCell>
        <mxCell id="TV-LyPcgmKJFYzfQ5_gd-62" value="&lt;font color=&quot;#000000&quot;&gt;id&lt;/font&gt;&lt;span style=&quot;white-space: pre;&quot;&gt;&#x9;&lt;/span&gt;&lt;span style=&quot;white-space: pre;&quot;&gt;&#x9;&lt;/span&gt;&lt;span style=&quot;white-space: pre;&quot;&gt;&#x9;&amp;nbsp;&lt;/span&gt;&amp;nbsp; &amp;nbsp; &amp;nbsp;&lt;font color=&quot;#808080&quot;&gt;varchar&lt;/font&gt;" style="strokeWidth=1;shadow=0;dashed=0;align=center;html=1;shape=mxgraph.mockup.forms.anchor;fontSize=17;fontColor=#666666;align=left;spacingLeft=5;resizeWidth=1;whiteSpace=wrap;" vertex="1" parent="TV-LyPcgmKJFYzfQ5_gd-60">
          <mxGeometry width="210" height="20" relative="1" as="geometry">
            <mxPoint y="40" as="offset" />
          </mxGeometry>
        </mxCell>
        <mxCell id="TV-LyPcgmKJFYzfQ5_gd-63" value="&lt;font color=&quot;#000000&quot;&gt;date_posted&lt;/font&gt;&lt;span style=&quot;white-space: pre;&quot;&gt;&#x9;&lt;/span&gt;&amp;nbsp; &amp;nbsp; datetime" style="strokeWidth=1;shadow=0;dashed=0;align=center;html=1;shape=mxgraph.mockup.forms.anchor;fontSize=17;fontColor=#666666;align=left;spacingLeft=5;resizeWidth=1;whiteSpace=wrap;" vertex="1" parent="TV-LyPcgmKJFYzfQ5_gd-60">
          <mxGeometry width="210" height="20" relative="1" as="geometry">
            <mxPoint y="61" as="offset" />
          </mxGeometry>
        </mxCell>
        <mxCell id="TV-LyPcgmKJFYzfQ5_gd-64" value="&lt;font color=&quot;#000000&quot;&gt;posted_by&lt;/font&gt;&lt;span style=&quot;white-space: pre;&quot;&gt;&#x9;&lt;/span&gt;&amp;nbsp; &amp;nbsp; &amp;nbsp; varchar" style="strokeWidth=1;shadow=0;dashed=0;align=center;html=1;shape=mxgraph.mockup.forms.rrect;rSize=0;fontSize=17;fontColor=#666666;align=left;spacingLeft=5;fillColor=#FFFFFF;strokeColor=none;resizeWidth=1;whiteSpace=wrap;" vertex="1" parent="TV-LyPcgmKJFYzfQ5_gd-60">
          <mxGeometry width="210" height="20" relative="1" as="geometry">
            <mxPoint y="82" as="offset" />
          </mxGeometry>
        </mxCell>
        <mxCell id="TV-LyPcgmKJFYzfQ5_gd-65" value="&lt;font color=&quot;#000000&quot;&gt;approved&lt;/font&gt;&lt;span style=&quot;white-space: pre;&quot;&gt;&#x9;&lt;/span&gt;&lt;span style=&quot;white-space: pre;&quot;&gt;&#x9;&lt;/span&gt;&amp;nbsp; &amp;nbsp; &amp;nbsp; &amp;nbsp; &amp;nbsp;bool" style="strokeWidth=1;shadow=0;dashed=0;align=center;html=1;shape=mxgraph.mockup.forms.anchor;fontSize=17;fontColor=#666666;align=left;spacingLeft=5;resizeWidth=1;whiteSpace=wrap;" vertex="1" parent="TV-LyPcgmKJFYzfQ5_gd-60">
          <mxGeometry width="210" height="20" relative="1" as="geometry">
            <mxPoint y="102" as="offset" />
          </mxGeometry>
        </mxCell>
        <mxCell id="TV-LyPcgmKJFYzfQ5_gd-66" value="&lt;font color=&quot;#000000&quot;&gt;context&lt;/font&gt;&lt;span style=&quot;white-space: pre;&quot;&gt;&#x9;&lt;/span&gt;&lt;span style=&quot;white-space: pre;&quot;&gt;&#x9;&lt;/span&gt;&amp;nbsp; &amp;nbsp; &amp;nbsp; varchar" style="strokeWidth=1;shadow=0;dashed=0;align=center;html=1;shape=mxgraph.mockup.forms.anchor;fontSize=17;fontColor=#666666;align=left;spacingLeft=5;resizeWidth=1;whiteSpace=wrap;" vertex="1" parent="TV-LyPcgmKJFYzfQ5_gd-60">
          <mxGeometry y="126.35223846153848" width="210" height="14.53846153846154" as="geometry" />
        </mxCell>
        <mxCell id="TV-LyPcgmKJFYzfQ5_gd-67" value="&lt;font color=&quot;#000000&quot;&gt;dob&lt;/font&gt;&lt;span style=&quot;white-space: pre;&quot;&gt;&#x9;&lt;/span&gt;&lt;span style=&quot;white-space: pre;&quot;&gt;&#x9;&lt;/span&gt;&lt;span style=&quot;white-space: pre;&quot;&gt;&#x9;&lt;/span&gt;&amp;nbsp; &amp;nbsp; datetime" style="strokeWidth=1;shadow=0;dashed=0;align=center;html=1;shape=mxgraph.mockup.forms.anchor;fontSize=17;fontColor=#666666;align=left;spacingLeft=5;resizeWidth=1;whiteSpace=wrap;" vertex="1" parent="TV-LyPcgmKJFYzfQ5_gd-60">
          <mxGeometry y="146.8914" width="210" height="14.53846153846154" as="geometry" />
        </mxCell>
        <mxCell id="TV-LyPcgmKJFYzfQ5_gd-72" value="&lt;font color=&quot;#000000&quot;&gt;image&lt;/font&gt;&lt;span style=&quot;white-space: pre;&quot;&gt;&#x9;&lt;/span&gt;&lt;span style=&quot;white-space: pre;&quot;&gt;&#x9;&lt;/span&gt;&amp;nbsp; &amp;nbsp; &amp;nbsp; base64" style="strokeWidth=1;shadow=0;dashed=0;align=center;html=1;shape=mxgraph.mockup.forms.anchor;fontSize=17;fontColor=#666666;align=left;spacingLeft=5;resizeWidth=1;whiteSpace=wrap;" vertex="1" parent="TV-LyPcgmKJFYzfQ5_gd-60">
          <mxGeometry y="167.4636866096866" width="210" height="21.53846153846154" as="geometry" />
        </mxCell>
        <mxCell id="TV-LyPcgmKJFYzfQ5_gd-83" value="&amp;nbsp;" style="strokeWidth=1;shadow=0;dashed=0;align=center;html=1;shape=mxgraph.mockup.forms.rrect;rSize=0;strokeColor=#999999;fillColor=#ffffff;" vertex="1" parent="1">
          <mxGeometry x="390" y="785" width="210" height="131.23" as="geometry" />
        </mxCell>
        <mxCell id="TV-LyPcgmKJFYzfQ5_gd-84" value="&lt;font color=&quot;#000000&quot;&gt;Timetable&lt;/font&gt;" style="strokeWidth=1;shadow=0;dashed=0;align=center;html=1;shape=mxgraph.mockup.forms.rrect;rSize=0;strokeColor=#999999;fontColor=#008cff;fontSize=17;fillColor=#ffffff;resizeWidth=1;whiteSpace=wrap;" vertex="1" parent="TV-LyPcgmKJFYzfQ5_gd-83">
          <mxGeometry width="210" height="30" relative="1" as="geometry">
            <mxPoint y="-1" as="offset" />
          </mxGeometry>
        </mxCell>
        <mxCell id="TV-LyPcgmKJFYzfQ5_gd-85" value="&lt;font color=&quot;#000000&quot;&gt;id&lt;/font&gt;&lt;span style=&quot;white-space: pre;&quot;&gt;&#x9;&lt;/span&gt;&lt;span style=&quot;white-space: pre;&quot;&gt;&#x9;&lt;/span&gt;&lt;span style=&quot;white-space: pre;&quot;&gt;&#x9;&amp;nbsp;&lt;/span&gt;&amp;nbsp; &amp;nbsp; &amp;nbsp;&lt;span style=&quot;white-space: pre;&quot;&gt;&#x9;&lt;/span&gt;&amp;nbsp;&amp;nbsp;&lt;font color=&quot;#808080&quot;&gt;int&lt;/font&gt;" style="strokeWidth=1;shadow=0;dashed=0;align=center;html=1;shape=mxgraph.mockup.forms.anchor;fontSize=17;fontColor=#666666;align=left;spacingLeft=5;resizeWidth=1;whiteSpace=wrap;" vertex="1" parent="TV-LyPcgmKJFYzfQ5_gd-83">
          <mxGeometry width="210" height="20" relative="1" as="geometry">
            <mxPoint y="40" as="offset" />
          </mxGeometry>
        </mxCell>
        <mxCell id="TV-LyPcgmKJFYzfQ5_gd-86" value="&lt;font color=&quot;#000000&quot;&gt;section&lt;/font&gt;&lt;span style=&quot;white-space: pre;&quot;&gt;&#x9;&lt;/span&gt;&lt;span style=&quot;white-space: pre;&quot;&gt;&#x9;&lt;/span&gt;&amp;nbsp; &amp;nbsp; &amp;nbsp; &amp;nbsp; &amp;nbsp;char" style="strokeWidth=1;shadow=0;dashed=0;align=center;html=1;shape=mxgraph.mockup.forms.anchor;fontSize=17;fontColor=#666666;align=left;spacingLeft=5;resizeWidth=1;whiteSpace=wrap;" vertex="1" parent="TV-LyPcgmKJFYzfQ5_gd-83">
          <mxGeometry width="210" height="20" relative="1" as="geometry">
            <mxPoint y="60" as="offset" />
          </mxGeometry>
        </mxCell>
        <mxCell id="TV-LyPcgmKJFYzfQ5_gd-87" value="&lt;font color=&quot;#000000&quot;&gt;semester&lt;/font&gt;&lt;span style=&quot;white-space: pre;&quot;&gt;&#x9;&lt;/span&gt;&lt;span style=&quot;white-space: pre;&quot;&gt;&#x9;&lt;/span&gt;&amp;nbsp; &amp;nbsp; &amp;nbsp;varchar" style="strokeWidth=1;shadow=0;dashed=0;align=center;html=1;shape=mxgraph.mockup.forms.rrect;rSize=0;fontSize=17;fontColor=#666666;align=left;spacingLeft=5;fillColor=#FFFFFF;strokeColor=none;resizeWidth=1;whiteSpace=wrap;" vertex="1" parent="TV-LyPcgmKJFYzfQ5_gd-83">
          <mxGeometry width="210" height="20" relative="1" as="geometry">
            <mxPoint y="81" as="offset" />
          </mxGeometry>
        </mxCell>
        <mxCell id="TV-LyPcgmKJFYzfQ5_gd-88" value="&lt;font color=&quot;#000000&quot;&gt;reminder&lt;/font&gt;&lt;span style=&quot;white-space: pre;&quot;&gt;&#x9;&lt;/span&gt;&lt;span style=&quot;white-space: pre;&quot;&gt;&#x9;&lt;/span&gt;&amp;nbsp; &amp;nbsp; &amp;nbsp;&lt;span style=&quot;white-space: pre;&quot;&gt;&#x9;&lt;/span&gt;bool" style="strokeWidth=1;shadow=0;dashed=0;align=center;html=1;shape=mxgraph.mockup.forms.anchor;fontSize=17;fontColor=#666666;align=left;spacingLeft=5;resizeWidth=1;whiteSpace=wrap;" vertex="1" parent="TV-LyPcgmKJFYzfQ5_gd-83">
          <mxGeometry y="108.23202345331278" width="210" height="10.094615384615384" as="geometry" />
        </mxCell>
        <mxCell id="TV-LyPcgmKJFYzfQ5_gd-98" value="&amp;nbsp;" style="strokeWidth=1;shadow=0;dashed=0;align=center;html=1;shape=mxgraph.mockup.forms.rrect;rSize=0;strokeColor=#999999;fillColor=#ffffff;" vertex="1" parent="1">
          <mxGeometry x="120" y="785" width="210" height="170" as="geometry" />
        </mxCell>
        <mxCell id="TV-LyPcgmKJFYzfQ5_gd-99" value="&lt;font color=&quot;#000000&quot;&gt;Event&lt;/font&gt;" style="strokeWidth=1;shadow=0;dashed=0;align=center;html=1;shape=mxgraph.mockup.forms.rrect;rSize=0;strokeColor=#999999;fontColor=#008cff;fontSize=17;fillColor=#ffffff;resizeWidth=1;whiteSpace=wrap;" vertex="1" parent="TV-LyPcgmKJFYzfQ5_gd-98">
          <mxGeometry width="210" height="30" relative="1" as="geometry">
            <mxPoint y="-1" as="offset" />
          </mxGeometry>
        </mxCell>
        <mxCell id="TV-LyPcgmKJFYzfQ5_gd-100" value="&lt;font color=&quot;#000000&quot;&gt;id&lt;/font&gt;&lt;span style=&quot;white-space: pre;&quot;&gt;&#x9;&lt;/span&gt;&lt;span style=&quot;white-space: pre;&quot;&gt;&#x9;&lt;/span&gt;&lt;span style=&quot;white-space: pre;&quot;&gt;&#x9;&amp;nbsp;&lt;/span&gt;&amp;nbsp; &amp;nbsp; &amp;nbsp;&lt;font color=&quot;#808080&quot;&gt;varchar&lt;/font&gt;" style="strokeWidth=1;shadow=0;dashed=0;align=center;html=1;shape=mxgraph.mockup.forms.anchor;fontSize=17;fontColor=#666666;align=left;spacingLeft=5;resizeWidth=1;whiteSpace=wrap;" vertex="1" parent="TV-LyPcgmKJFYzfQ5_gd-98">
          <mxGeometry width="210" height="20" relative="1" as="geometry">
            <mxPoint y="40" as="offset" />
          </mxGeometry>
        </mxCell>
        <mxCell id="TV-LyPcgmKJFYzfQ5_gd-101" value="&lt;font color=&quot;#000000&quot;&gt;date&lt;span style=&quot;white-space: pre;&quot;&gt;&#x9;&lt;/span&gt;&lt;span style=&quot;white-space: pre;&quot;&gt;&#x9;&lt;/span&gt;&lt;/font&gt;&lt;span style=&quot;white-space: pre;&quot;&gt;&#x9;&lt;/span&gt;&amp;nbsp; &amp;nbsp; datetime" style="strokeWidth=1;shadow=0;dashed=0;align=center;html=1;shape=mxgraph.mockup.forms.anchor;fontSize=17;fontColor=#666666;align=left;spacingLeft=5;resizeWidth=1;whiteSpace=wrap;" vertex="1" parent="TV-LyPcgmKJFYzfQ5_gd-98">
          <mxGeometry width="210" height="20" relative="1" as="geometry">
            <mxPoint y="104" as="offset" />
          </mxGeometry>
        </mxCell>
        <mxCell id="TV-LyPcgmKJFYzfQ5_gd-102" value="&lt;font color=&quot;#000000&quot;&gt;venue&lt;span style=&quot;white-space: pre;&quot;&gt;&#x9;&lt;/span&gt;&lt;/font&gt;&lt;span style=&quot;white-space: pre;&quot;&gt;&#x9;&lt;/span&gt;&amp;nbsp; &amp;nbsp; &amp;nbsp; varchar" style="strokeWidth=1;shadow=0;dashed=0;align=center;html=1;shape=mxgraph.mockup.forms.rrect;rSize=0;fontSize=17;fontColor=#666666;align=left;spacingLeft=5;fillColor=#FFFFFF;strokeColor=none;resizeWidth=1;whiteSpace=wrap;" vertex="1" parent="TV-LyPcgmKJFYzfQ5_gd-98">
          <mxGeometry width="210" height="20" relative="1" as="geometry">
            <mxPoint y="82" as="offset" />
          </mxGeometry>
        </mxCell>
        <mxCell id="TV-LyPcgmKJFYzfQ5_gd-103" value="&lt;font color=&quot;#000000&quot;&gt;title&lt;/font&gt;&lt;span style=&quot;white-space: pre;&quot;&gt;&#x9;&lt;/span&gt;&lt;span style=&quot;white-space: pre;&quot;&gt;&#x9;&lt;/span&gt;&amp;nbsp; &amp;nbsp; &amp;nbsp; &amp;nbsp; &amp;nbsp; &amp;nbsp; &amp;nbsp; varchar" style="strokeWidth=1;shadow=0;dashed=0;align=center;html=1;shape=mxgraph.mockup.forms.anchor;fontSize=17;fontColor=#666666;align=left;spacingLeft=5;resizeWidth=1;whiteSpace=wrap;" vertex="1" parent="TV-LyPcgmKJFYzfQ5_gd-98">
          <mxGeometry width="210" height="20" relative="1" as="geometry">
            <mxPoint y="62" as="offset" />
          </mxGeometry>
        </mxCell>
        <mxCell id="TV-LyPcgmKJFYzfQ5_gd-104" value="&lt;font color=&quot;#000000&quot;&gt;details&lt;/font&gt;&lt;span style=&quot;white-space: pre;&quot;&gt;&#x9;&lt;/span&gt;&lt;span style=&quot;white-space: pre;&quot;&gt;&#x9;&lt;/span&gt;&amp;nbsp; &amp;nbsp; &amp;nbsp; varchar" style="strokeWidth=1;shadow=0;dashed=0;align=center;html=1;shape=mxgraph.mockup.forms.anchor;fontSize=17;fontColor=#666666;align=left;spacingLeft=5;resizeWidth=1;whiteSpace=wrap;" vertex="1" parent="TV-LyPcgmKJFYzfQ5_gd-98">
          <mxGeometry x="-1" y="128.00016157916158" width="210" height="13.076923076923078" as="geometry" />
        </mxCell>
        <mxCell id="TV-LyPcgmKJFYzfQ5_gd-105" value="&lt;font color=&quot;#000000&quot;&gt;time&lt;/font&gt;&lt;span style=&quot;white-space: pre;&quot;&gt;&#x9;&lt;/span&gt;&lt;span style=&quot;white-space: pre;&quot;&gt;&#x9;&lt;/span&gt;&lt;span style=&quot;white-space: pre;&quot;&gt;&#x9;&lt;/span&gt;&amp;nbsp; &amp;nbsp; datetime" style="strokeWidth=1;shadow=0;dashed=0;align=center;html=1;shape=mxgraph.mockup.forms.anchor;fontSize=17;fontColor=#666666;align=left;spacingLeft=5;resizeWidth=1;whiteSpace=wrap;" vertex="1" parent="TV-LyPcgmKJFYzfQ5_gd-98">
          <mxGeometry y="150.00453968253967" width="210" height="13.076923076923078" as="geometry" />
        </mxCell>
        <mxCell id="TV-LyPcgmKJFYzfQ5_gd-106" value="&amp;nbsp;" style="strokeWidth=1;shadow=0;dashed=0;align=center;html=1;shape=mxgraph.mockup.forms.rrect;rSize=0;strokeColor=#999999;fillColor=#ffffff;" vertex="1" parent="1">
          <mxGeometry x="40" y="145" width="210" height="280" as="geometry" />
        </mxCell>
        <mxCell id="TV-LyPcgmKJFYzfQ5_gd-107" value="&lt;font color=&quot;#000000&quot;&gt;Faculty&lt;/font&gt;" style="strokeWidth=1;shadow=0;dashed=0;align=center;html=1;shape=mxgraph.mockup.forms.rrect;rSize=0;strokeColor=#999999;fontColor=#008cff;fontSize=17;fillColor=#ffffff;resizeWidth=1;whiteSpace=wrap;" vertex="1" parent="TV-LyPcgmKJFYzfQ5_gd-106">
          <mxGeometry width="210" height="30" relative="1" as="geometry">
            <mxPoint y="-1" as="offset" />
          </mxGeometry>
        </mxCell>
        <mxCell id="TV-LyPcgmKJFYzfQ5_gd-108" value="&lt;font color=&quot;#000000&quot;&gt;id&lt;/font&gt;&lt;span style=&quot;white-space: pre;&quot;&gt;&#x9;&lt;/span&gt;&lt;span style=&quot;white-space: pre;&quot;&gt;&#x9;&lt;/span&gt;&lt;span style=&quot;white-space: pre;&quot;&gt;&#x9;&amp;nbsp;&lt;/span&gt;&amp;nbsp; &amp;nbsp; &amp;nbsp;&lt;font color=&quot;#808080&quot;&gt;varchar&lt;/font&gt;" style="strokeWidth=1;shadow=0;dashed=0;align=center;html=1;shape=mxgraph.mockup.forms.anchor;fontSize=17;fontColor=#666666;align=left;spacingLeft=5;resizeWidth=1;whiteSpace=wrap;" vertex="1" parent="TV-LyPcgmKJFYzfQ5_gd-106">
          <mxGeometry width="210" height="20" relative="1" as="geometry">
            <mxPoint y="40" as="offset" />
          </mxGeometry>
        </mxCell>
        <mxCell id="TV-LyPcgmKJFYzfQ5_gd-109" value="&lt;font color=&quot;#000000&quot;&gt;name&lt;/font&gt;&lt;span style=&quot;white-space: pre;&quot;&gt;&#x9;&lt;/span&gt;&lt;span style=&quot;white-space: pre;&quot;&gt;&#x9;&lt;/span&gt;&amp;nbsp; &amp;nbsp; &amp;nbsp; varchar" style="strokeWidth=1;shadow=0;dashed=0;align=center;html=1;shape=mxgraph.mockup.forms.anchor;fontSize=17;fontColor=#666666;align=left;spacingLeft=5;resizeWidth=1;whiteSpace=wrap;" vertex="1" parent="TV-LyPcgmKJFYzfQ5_gd-106">
          <mxGeometry width="210" height="20" relative="1" as="geometry">
            <mxPoint y="60" as="offset" />
          </mxGeometry>
        </mxCell>
        <mxCell id="TV-LyPcgmKJFYzfQ5_gd-110" value="&lt;font color=&quot;#000000&quot;&gt;phone&lt;/font&gt;&lt;span style=&quot;white-space: pre;&quot;&gt;&#x9;&lt;/span&gt;&lt;span style=&quot;white-space: pre;&quot;&gt;&#x9;&lt;span style=&quot;white-space: pre;&quot;&gt;&#x9;&lt;/span&gt;l&lt;/span&gt;ong" style="strokeWidth=1;shadow=0;dashed=0;align=center;html=1;shape=mxgraph.mockup.forms.rrect;rSize=0;fontSize=17;fontColor=#666666;align=left;spacingLeft=5;fillColor=#FFFFFF;strokeColor=none;resizeWidth=1;whiteSpace=wrap;" vertex="1" parent="TV-LyPcgmKJFYzfQ5_gd-106">
          <mxGeometry width="210" height="20" relative="1" as="geometry">
            <mxPoint y="80" as="offset" />
          </mxGeometry>
        </mxCell>
        <mxCell id="TV-LyPcgmKJFYzfQ5_gd-111" value="&lt;font color=&quot;#000000&quot;&gt;email&lt;/font&gt;&lt;span style=&quot;white-space: pre;&quot;&gt;&#x9;&lt;/span&gt;&lt;span style=&quot;white-space: pre;&quot;&gt;&#x9;&lt;/span&gt;&amp;nbsp; &amp;nbsp; &amp;nbsp; varchar" style="strokeWidth=1;shadow=0;dashed=0;align=center;html=1;shape=mxgraph.mockup.forms.anchor;fontSize=17;fontColor=#666666;align=left;spacingLeft=5;resizeWidth=1;whiteSpace=wrap;" vertex="1" parent="TV-LyPcgmKJFYzfQ5_gd-106">
          <mxGeometry width="210" height="20" relative="1" as="geometry">
            <mxPoint y="100" as="offset" />
          </mxGeometry>
        </mxCell>
        <mxCell id="TV-LyPcgmKJFYzfQ5_gd-112" value="&lt;font color=&quot;#000000&quot;&gt;gender&lt;/font&gt;&lt;span style=&quot;white-space: pre;&quot;&gt;&#x9;&lt;/span&gt;&lt;span style=&quot;white-space: pre;&quot;&gt;&#x9;&lt;/span&gt;&amp;nbsp; &amp;nbsp; &amp;nbsp; varchar" style="strokeWidth=1;shadow=0;dashed=0;align=center;html=1;shape=mxgraph.mockup.forms.anchor;fontSize=17;fontColor=#666666;align=left;spacingLeft=5;resizeWidth=1;whiteSpace=wrap;" vertex="1" parent="TV-LyPcgmKJFYzfQ5_gd-106">
          <mxGeometry y="120.00331623931626" width="210" height="21.53846153846154" as="geometry" />
        </mxCell>
        <mxCell id="TV-LyPcgmKJFYzfQ5_gd-113" value="&lt;font color=&quot;#000000&quot;&gt;dob&lt;/font&gt;&lt;span style=&quot;white-space: pre;&quot;&gt;&#x9;&lt;/span&gt;&lt;span style=&quot;white-space: pre;&quot;&gt;&#x9;&lt;/span&gt;&lt;span style=&quot;white-space: pre;&quot;&gt;&#x9;&lt;/span&gt;&amp;nbsp; &amp;nbsp; datetime" style="strokeWidth=1;shadow=0;dashed=0;align=center;html=1;shape=mxgraph.mockup.forms.anchor;fontSize=17;fontColor=#666666;align=left;spacingLeft=5;resizeWidth=1;whiteSpace=wrap;" vertex="1" parent="TV-LyPcgmKJFYzfQ5_gd-106">
          <mxGeometry y="141.54281481481482" width="210" height="21.53846153846154" as="geometry" />
        </mxCell>
        <mxCell id="TV-LyPcgmKJFYzfQ5_gd-114" value="&lt;font color=&quot;#000000&quot;&gt;department&lt;/font&gt;&lt;span style=&quot;white-space: pre;&quot;&gt;&lt;span style=&quot;white-space: pre;&quot;&gt;&#x9;&lt;/span&gt;      varchar&lt;/span&gt;" style="strokeWidth=1;shadow=0;dashed=0;align=center;html=1;shape=mxgraph.mockup.forms.rrect;rSize=0;fontSize=17;fontColor=#666666;align=left;spacingLeft=5;fillColor=#FFFFFF;strokeColor=none;resizeWidth=1;whiteSpace=wrap;" vertex="1" parent="TV-LyPcgmKJFYzfQ5_gd-106">
          <mxGeometry y="163.0823133903134" width="210" height="21.53846153846154" as="geometry" />
        </mxCell>
        <mxCell id="TV-LyPcgmKJFYzfQ5_gd-115" value="&lt;font color=&quot;#000000&quot;&gt;publications&lt;/font&gt;&amp;nbsp; &amp;nbsp; &amp;nbsp; &amp;nbsp; &amp;nbsp; &amp;nbsp;varchar" style="strokeWidth=1;shadow=0;dashed=0;align=center;html=1;shape=mxgraph.mockup.forms.anchor;fontSize=17;fontColor=#666666;align=left;spacingLeft=5;resizeWidth=1;whiteSpace=wrap;" vertex="1" parent="TV-LyPcgmKJFYzfQ5_gd-106">
          <mxGeometry y="185.62077492877498" width="210" height="21.53846153846154" as="geometry" />
        </mxCell>
        <mxCell id="TV-LyPcgmKJFYzfQ5_gd-116" value="&lt;font color=&quot;#000000&quot;&gt;education&lt;/font&gt;&lt;span style=&quot;white-space: pre;&quot;&gt;&#x9;&lt;/span&gt;&amp;nbsp; &amp;nbsp; &amp;nbsp; varchar" style="strokeWidth=1;shadow=0;dashed=0;align=center;html=1;shape=mxgraph.mockup.forms.anchor;fontSize=17;fontColor=#666666;align=left;spacingLeft=5;resizeWidth=1;whiteSpace=wrap;" vertex="1" parent="TV-LyPcgmKJFYzfQ5_gd-106">
          <mxGeometry y="206.15676353276356" width="210" height="21.53846153846154" as="geometry" />
        </mxCell>
        <mxCell id="TV-LyPcgmKJFYzfQ5_gd-117" value="&lt;font color=&quot;#000000&quot;&gt;office_loc&lt;/font&gt;&lt;span style=&quot;white-space: pre;&quot;&gt;&#x9;&lt;/span&gt;&lt;span style=&quot;white-space: pre;&quot;&gt;&#x9;&lt;/span&gt;&amp;nbsp; &amp;nbsp; &amp;nbsp; varchar" style="strokeWidth=1;shadow=0;dashed=0;align=center;html=1;shape=mxgraph.mockup.forms.anchor;fontSize=17;fontColor=#666666;align=left;spacingLeft=5;resizeWidth=1;whiteSpace=wrap;" vertex="1" parent="TV-LyPcgmKJFYzfQ5_gd-106">
          <mxGeometry y="228.46235327635333" width="210" height="21.53846153846154" as="geometry" />
        </mxCell>
        <mxCell id="TV-LyPcgmKJFYzfQ5_gd-118" value="&lt;font color=&quot;#000000&quot;&gt;ext&lt;/font&gt;&lt;span style=&quot;white-space: pre;&quot;&gt;&#x9;&lt;/span&gt;&lt;span style=&quot;white-space: pre;&quot;&gt;&#x9;&lt;/span&gt;&amp;nbsp; &amp;nbsp; &amp;nbsp; &lt;span style=&quot;white-space: pre;&quot;&gt;&#x9;&lt;/span&gt;&lt;span style=&quot;white-space: pre;&quot;&gt;&#x9;&lt;/span&gt;&amp;nbsp; &amp;nbsp;int" style="strokeWidth=1;shadow=0;dashed=0;align=center;html=1;shape=mxgraph.mockup.forms.anchor;fontSize=17;fontColor=#666666;align=left;spacingLeft=5;resizeWidth=1;whiteSpace=wrap;" vertex="1" parent="TV-LyPcgmKJFYzfQ5_gd-106">
          <mxGeometry y="250.00368660968667" width="210" height="21.53846153846154" as="geometry" />
        </mxCell>
        <mxCell id="TV-LyPcgmKJFYzfQ5_gd-119" style="rounded=0;orthogonalLoop=1;jettySize=auto;html=1;endArrow=none;endFill=0;elbow=vertical;edgeStyle=orthogonalEdgeStyle;exitX=0.522;exitY=1.018;exitDx=0;exitDy=0;exitPerimeter=0;" edge="1" parent="1" source="TV-LyPcgmKJFYzfQ5_gd-51" target="TV-LyPcgmKJFYzfQ5_gd-2">
          <mxGeometry relative="1" as="geometry">
            <mxPoint x="710" y="305" as="sourcePoint" />
            <Array as="points">
              <mxPoint x="710" y="370" />
              <mxPoint x="640" y="370" />
            </Array>
          </mxGeometry>
        </mxCell>
        <mxCell id="TV-LyPcgmKJFYzfQ5_gd-120" style="edgeStyle=orthogonalEdgeStyle;rounded=0;orthogonalLoop=1;jettySize=auto;html=1;entryX=0.667;entryY=1.005;entryDx=0;entryDy=0;entryPerimeter=0;endArrow=none;endFill=0;" edge="1" parent="1" source="TV-LyPcgmKJFYzfQ5_gd-2" target="TV-LyPcgmKJFYzfQ5_gd-60">
          <mxGeometry relative="1" as="geometry">
            <Array as="points">
              <mxPoint x="560" y="389" />
              <mxPoint x="460" y="389" />
            </Array>
          </mxGeometry>
        </mxCell>
        <mxCell id="TV-LyPcgmKJFYzfQ5_gd-121" style="edgeStyle=orthogonalEdgeStyle;rounded=0;orthogonalLoop=1;jettySize=auto;html=1;entryX=0.998;entryY=0.925;entryDx=0;entryDy=0;entryPerimeter=0;endArrow=none;endFill=0;" edge="1" parent="1">
          <mxGeometry relative="1" as="geometry">
            <mxPoint x="480" y="430" as="sourcePoint" />
            <mxPoint x="249.99999999999991" y="404.9954301994302" as="targetPoint" />
            <Array as="points">
              <mxPoint x="480" y="405" />
            </Array>
          </mxGeometry>
        </mxCell>
        <mxCell id="TV-LyPcgmKJFYzfQ5_gd-122" style="edgeStyle=orthogonalEdgeStyle;rounded=0;orthogonalLoop=1;jettySize=auto;html=1;entryX=0.367;entryY=1.008;entryDx=0;entryDy=0;entryPerimeter=0;endArrow=none;endFill=0;" edge="1" parent="1" source="TV-LyPcgmKJFYzfQ5_gd-30" target="TV-LyPcgmKJFYzfQ5_gd-106">
          <mxGeometry relative="1" as="geometry">
            <Array as="points">
              <mxPoint x="210" y="455" />
              <mxPoint x="117" y="455" />
            </Array>
          </mxGeometry>
        </mxCell>
        <mxCell id="TV-LyPcgmKJFYzfQ5_gd-123" style="edgeStyle=orthogonalEdgeStyle;rounded=0;orthogonalLoop=1;jettySize=auto;html=1;endArrow=none;endFill=0;" edge="1" parent="1">
          <mxGeometry relative="1" as="geometry">
            <mxPoint x="290" y="493" as="sourcePoint" />
            <mxPoint x="360" y="335" as="targetPoint" />
            <Array as="points">
              <mxPoint x="290" y="375" />
              <mxPoint x="360" y="375" />
            </Array>
          </mxGeometry>
        </mxCell>
        <mxCell id="TV-LyPcgmKJFYzfQ5_gd-124" style="edgeStyle=orthogonalEdgeStyle;rounded=0;orthogonalLoop=1;jettySize=auto;html=1;entryX=0.375;entryY=1.014;entryDx=0;entryDy=0;entryPerimeter=0;endArrow=none;endFill=0;exitX=0.952;exitY=0.007;exitDx=0;exitDy=0;exitPerimeter=0;" edge="1" parent="1">
          <mxGeometry relative="1" as="geometry">
            <mxPoint x="379.91999999999985" y="492.11" as="sourcePoint" />
            <mxPoint x="678.75" y="295" as="targetPoint" />
            <Array as="points">
              <mxPoint x="380" y="489.9" />
              <mxPoint x="380" y="489.9" />
              <mxPoint x="380" y="352.9" />
              <mxPoint x="679" y="352.9" />
            </Array>
          </mxGeometry>
        </mxCell>
        <mxCell id="TV-LyPcgmKJFYzfQ5_gd-125" style="edgeStyle=orthogonalEdgeStyle;rounded=0;orthogonalLoop=1;jettySize=auto;html=1;entryX=0.175;entryY=1.012;entryDx=0;entryDy=0;entryPerimeter=0;endArrow=none;endFill=0;" edge="1" parent="1" source="TV-LyPcgmKJFYzfQ5_gd-99" target="TV-LyPcgmKJFYzfQ5_gd-29">
          <mxGeometry relative="1" as="geometry">
            <mxPoint x="241.5" y="762" as="sourcePoint" />
            <mxPoint x="148.5" y="695" as="targetPoint" />
            <Array as="points">
              <mxPoint x="140" y="735" />
              <mxPoint x="217" y="735" />
            </Array>
          </mxGeometry>
        </mxCell>
        <mxCell id="TV-LyPcgmKJFYzfQ5_gd-126" style="edgeStyle=orthogonalEdgeStyle;rounded=0;orthogonalLoop=1;jettySize=auto;html=1;entryX=0.175;entryY=1.012;entryDx=0;entryDy=0;entryPerimeter=0;endArrow=none;endFill=0;exitX=0.14;exitY=-0.104;exitDx=0;exitDy=0;exitPerimeter=0;" edge="1" parent="1" source="TV-LyPcgmKJFYzfQ5_gd-84">
          <mxGeometry relative="1" as="geometry">
            <mxPoint x="210" y="782" as="sourcePoint" />
            <mxPoint x="287" y="685" as="targetPoint" />
            <Array as="points">
              <mxPoint x="419" y="782" />
              <mxPoint x="420" y="782" />
              <mxPoint x="420" y="733" />
              <mxPoint x="287" y="733" />
            </Array>
          </mxGeometry>
        </mxCell>
      </root>
    </mxGraphModel>
  </diagram>
</mxfile>
